<svg id="eUzmMDkytJp1" xmlns="http://www.w3.org/2000/svg" xmlns:xlink="http://www.w3.org/1999/xlink" viewBox="0 0 450 446" shape-rendering="geometricPrecision" text-rendering="geometricPrecision"><style><![CDATA[#eUzmMDkytJp3_tr {animation: eUzmMDkytJp3_tr__tr 3000ms linear infinite normal forwards}@keyframes eUzmMDkytJp3_tr__tr { 0% {transform: translate(2249.999989px,2232.659606px) rotate(0deg)} 100% {transform: translate(2249.999989px,2232.659606px) rotate(-360.044635deg)}}]]></style><g id="eUzmMDkytJp2" transform="matrix(0.10000000000000 0 0 -0.10000000000000 0 446)"><g id="eUzmMDkytJp3_tr" transform="translate(2249.999989,2232.659606) rotate(0)"><path id="eUzmMDkytJp3" d="M1834,4430C1643,4335,1540,4085,1540,3718C1540,3363,1637,2976,1848,2493C1870,2442,1887,2400,1885,2400C1883,2400,1862,2434,1838,2475C1782,2572,1766,2573,1820,2475C1843,2434,1859,2400,1857,2400C1854,2400,1830,2430,1804,2467C1723,2580,1568,2770,1469,2876C1181,3186,900,3384,620,3476C543,3501,521,3504,390,3504C251,3505,243,3504,183,3476C108,3442,41,3374,16,3308C2,3273,-1,3240,1,3173C5,3091,9,3076,49,2995C83,2926,112,2887,179,2817C459,2527,982,2332,1685,2256L1815,2242L1708,2241C1643,2240,1600,2236,1600,2230C1600,2224,1644,2219,1708,2218C1767,2218,1799,2215,1780,2213C1373,2172,1102,2118,830,2025C414,1882,112,1651,21,1407C-9,1324,-8,1203,24,1135C55,1070,110,1018,185,983C242,956,251,955,390,956C521,956,543,959,620,984C901,1076,1178,1273,1472,1587C1568,1690,1723,1880,1804,1993C1830,2030,1854,2060,1857,2060C1859,2060,1843,2026,1820,1985C1766,1887,1782,1888,1838,1985C1862,2026,1883,2060,1885,2060C1887,2060,1870,2018,1848,1968C1637,1484,1540,1097,1540,742C1540,375,1643,125,1834,30C1919,-13,2021,-13,2106,30C2297,125,2400,375,2400,742C2400,1097,2303,1484,2092,1967C2070,2018,2053,2060,2055,2060C2057,2060,2078,2026,2102,1985C2158,1888,2174,1887,2120,1985C2097,2026,2081,2060,2083,2060C2086,2060,2110,2030,2136,1993C2217,1880,2372,1690,2468,1587C2762,1273,3039,1076,3320,984C3397,959,3419,956,3550,956C3689,955,3698,956,3755,983C3830,1018,3885,1070,3916,1135C3948,1203,3949,1324,3919,1407C3828,1651,3526,1882,3110,2025C2838,2118,2567,2172,2160,2213C2141,2215,2173,2218,2233,2218C2296,2219,2340,2224,2340,2230C2340,2236,2297,2240,2233,2241L2125,2242L2255,2256C2958,2332,3481,2527,3761,2817C3828,2887,3857,2926,3891,2995C3931,3076,3935,3091,3939,3173C3941,3240,3938,3273,3924,3308C3899,3374,3832,3442,3757,3476C3697,3504,3689,3505,3550,3504C3419,3504,3397,3501,3320,3476C3040,3384,2759,3186,2471,2876C2372,2770,2217,2580,2136,2467C2110,2430,2086,2400,2083,2400C2081,2400,2097,2434,2120,2475C2174,2573,2158,2572,2102,2475C2078,2434,2057,2400,2055,2400C2053,2400,2070,2442,2092,2493C2303,2976,2400,3363,2400,3718C2400,4085,2297,4335,2106,4430C2056,4455,2035,4460,1970,4460C1905,4460,1884,4455,1834,4430Z" transform="translate(-1969.999977,-2228.875000)" fill="rgb(60,108,180)" stroke="none" stroke-width="1" stroke-miterlimit="1"/></g></g></svg>